<svg version="1.1" viewBox="0.0 0.0 655.4488188976378 295.7191601049869" fill="none" stroke="none"
    stroke-linecap="square" stroke-miterlimit="10" xmlns:xlink="http://www.w3.org/1999/xlink"
    xmlns="http://www.w3.org/2000/svg">
    <clipPath id="p.0">
        <path d="m0 0l655.4488 0l0 295.71915l-655.4488 0l0 -295.71915z" clip-rule="nonzero" />
    </clipPath>
    <g clip-path="url(#p.0)">
        <path fill="#000000" fill-opacity="0.0" d="m0 0l655.4488 0l0 295.71915l-655.4488 0z"
            fill-rule="evenodd" />
        <path fill="#d9d9d9"
            d="m356.43176 59.51837l0 0c0 -17.090385 27.018036 -30.944881 60.346466 -30.944881l0 0c33.3284 0 60.346436 13.854496 60.346436 30.944881l0 0c0 17.090385 -27.018036 30.944885 -60.346436 30.944885l0 0c-33.32843 0 -60.346466 -13.8545 -60.346466 -30.944885z"
            fill-rule="evenodd" />
        <path stroke="#cccccc" stroke-width="1.0" stroke-linejoin="round" stroke-linecap="butt"
            d="m356.43176 59.51837l0 0c0 -17.090385 27.018036 -30.944881 60.346466 -30.944881l0 0c33.3284 0 60.346436 13.854496 60.346436 30.944881l0 0c0 17.090385 -27.018036 30.944885 -60.346436 30.944885l0 0c-33.32843 0 -60.346466 -13.8545 -60.346466 -30.944885z"
            fill-rule="evenodd" />
        <path fill="#d9d9d9" d="m346.1168 51.26378l141.32285 0l0 242.39369l-141.32285 0z"
            fill-rule="evenodd" />
        <path stroke="#cccccc" stroke-width="1.0" stroke-linejoin="round" stroke-linecap="butt"
            d="m346.1168 51.26378l141.32285 0l0 242.39369l-141.32285 0z" fill-rule="evenodd" />
        <path fill="#000000"
            d="m411.70734 40.169292l0 0c0 -2.8005638 2.2703247 -5.0708656 5.0708923 -5.0708656l0 0c1.3448486 0 2.6346436 0.53424835 3.5856323 1.4852219c0.95095825 0.9509697 1.4852295 2.2407646 1.4852295 3.5856438l0 0c0 2.80056 -2.2703247 5.0708656 -5.070862 5.0708656l0 0c-2.8005676 0 -5.0708923 -2.2703056 -5.0708923 -5.0708656z"
            fill-rule="evenodd" />
        <path fill="#000000"
            d="m411.70734 258.65485l0 0c0 -2.8005524 2.2703247 -5.070862 5.0708923 -5.070862l0 0c1.3448486 0 2.6346436 0.534256 3.5856323 1.4852295c0.95095825 0.95095825 1.4852295 2.2407532 1.4852295 3.5856323l0 0c0 2.8005676 -2.2703247 5.070862 -5.070862 5.070862l0 0c-2.8005676 0 -5.0708923 -2.2702942 -5.0708923 -5.070862z"
            fill-rule="evenodd" />
        <path fill="#000000"
            d="m413.8491 87.53281l0 0c0 -1.6177139 1.3114014 -2.9291306 2.9291382 -2.9291306l0 0c0.77685547 0 1.5218811 0.30860138 2.0711975 0.8579254c0.5493164 0.5493164 0.85791016 1.2943497 0.85791016 2.0712051l0 0c0 1.6177216 -1.3114014 2.9291382 -2.9291077 2.9291382l0 0c-1.6177368 0 -2.9291382 -1.3114166 -2.9291382 -2.9291382z"
            fill-rule="evenodd" />
        <path fill="#000000"
            d="m413.8491 172.45932l0 0c0 -1.6177216 1.3114014 -2.9291382 2.9291382 -2.9291382l0 0c0.77685547 0 1.5218811 0.308609 2.0711975 0.8579254c0.5493164 0.5493164 0.85791016 1.2943573 0.85791016 2.0712128l0 0c0 1.6177063 -1.3114014 2.9291382 -2.9291077 2.9291382l0 0c-1.6177368 0 -2.9291382 -1.3114319 -2.9291382 -2.9291382z"
            fill-rule="evenodd" />
        <path fill="#000000"
            d="m413.8491 245.4462l0 0c0 -1.6177216 1.3114014 -2.9291382 2.9291382 -2.9291382l0 0c0.77685547 0 1.5218811 0.308609 2.0711975 0.8579254c0.5493164 0.5493164 0.85791016 1.2943573 0.85791016 2.0712128l0 0c0 1.6177063 -1.3114014 2.9291382 -2.9291077 2.9291382l0 0c-1.6177368 0 -2.9291382 -1.3114319 -2.9291382 -2.9291382z"
            fill-rule="evenodd" />
        <path fill="#000000"
            d="m413.8491 271.8609l0 0c0 -1.6177368 1.3114014 -2.9291382 2.9291382 -2.9291382l0 0c0.77685547 0 1.5218811 0.30859375 2.0711975 0.85791016c0.5493164 0.5493164 0.85791016 1.2943726 0.85791016 2.071228l0 0c0 1.6177063 -1.3114014 2.9291382 -2.9291077 2.9291382l0 0c-1.6177368 0 -2.9291382 -1.3114319 -2.9291382 -2.9291382z"
            fill-rule="evenodd" />
        <path fill="#d9d9d9"
            d="m204.09448 59.519684l0 0c0 -17.090385 27.018036 -30.944881 60.346466 -30.944881l0 0c33.32843 0 60.346466 13.854496 60.346466 30.944881l0 0c0 17.090385 -27.018036 30.944885 -60.346466 30.944885l0 0c-33.32843 0 -60.346466 -13.8545 -60.346466 -30.944885z"
            fill-rule="evenodd" />
        <path stroke="#cccccc" stroke-width="1.0" stroke-linejoin="round" stroke-linecap="butt"
            d="m204.09448 59.519684l0 0c0 -17.090385 27.018036 -30.944881 60.346466 -30.944881l0 0c33.32843 0 60.346466 13.854496 60.346466 30.944881l0 0c0 17.090385 -27.018036 30.944885 -60.346466 30.944885l0 0c-33.32843 0 -60.346466 -13.8545 -60.346466 -30.944885z"
            fill-rule="evenodd" />
        <path fill="#d9d9d9" d="m193.77953 51.26509l141.32283 0l0 242.39369l-141.32283 0z"
            fill-rule="evenodd" />
        <path stroke="#cccccc" stroke-width="1.0" stroke-linejoin="round" stroke-linecap="butt"
            d="m193.77953 51.26509l141.32283 0l0 242.39369l-141.32283 0z" fill-rule="evenodd" />
        <path fill="#000000"
            d="m259.3701 40.170605l0 0c0 -2.8005638 2.2702942 -5.0708656 5.070862 -5.0708656l0 0c1.3448792 0 2.634674 0.53424835 3.5856323 1.4852219c0.95098877 0.9509697 1.4852295 2.2407646 1.4852295 3.5856438l0 0c0 2.80056 -2.2702942 5.0708656 -5.070862 5.0708656l0 0c-2.8005676 0 -5.070862 -2.2703056 -5.070862 -5.0708656z"
            fill-rule="evenodd" />
        <path fill="#6d9eeb"
            d="m275.3701 40.170605l0 0c0 -2.8005638 2.2702942 -5.0708656 5.070862 -5.0708656l0 0c1.3448792 0 2.634674 0.53424835 3.5856323 1.4852219c0.95098877 0.9509697 1.4852295 2.2407646 1.4852295 3.5856438l0 0c0 2.80056 -2.2702942 5.0708656 -5.070862 5.0708656l0 0c-2.8005676 0 -5.070862 -2.2703056 -5.070862 -5.0708656z"
            fill-rule="evenodd" />
        <path fill="#e06666"
            d="m243.37007 40.170605l0 0c0 -2.8005638 2.2703094 -5.0708656 5.070877 -5.0708656l0 0c1.3448792 0 2.634674 0.53424835 3.5856476 1.4852219c0.95095825 0.9509697 1.4852142 2.2407646 1.4852142 3.5856438l0 0c0 2.80056 -2.2703094 5.0708656 -5.070862 5.0708656l0 0c-2.8005676 0 -5.070877 -2.2703056 -5.070877 -5.0708656z"
            fill-rule="evenodd" />
        <path fill="#000000"
            d="m259.3701 73.66929l0 0c0 -2.80056 2.2702942 -5.070862 5.070862 -5.070862l0 0c1.3448792 0 2.634674 0.53424835 3.5856323 1.4852219c0.95098877 0.9509735 1.4852295 2.2407684 1.4852295 3.58564l0 0c0 2.8005676 -2.2702942 5.0708694 -5.070862 5.0708694l0 0c-2.8005676 0 -5.070862 -2.2703018 -5.070862 -5.0708694z"
            fill-rule="evenodd" />
        <path fill="#000000"
            d="m259.3701 185.6693l0 0c0 -2.8005676 2.2702942 -5.070877 5.070862 -5.070877l0 0c1.3448792 0 2.634674 0.534256 3.5856323 1.4852295c0.95098877 0.9509735 1.4852295 2.2407684 1.4852295 3.5856476l0 0c0 2.8005524 -2.2702942 5.070862 -5.070862 5.070862l0 0c-2.8005676 0 -5.070862 -2.2703094 -5.070862 -5.070862z"
            fill-rule="evenodd" />
        <path fill="#000000"
            d="m259.3701 258.65616l0 0c0 -2.8005524 2.2702942 -5.070862 5.070862 -5.070862l0 0c1.3448792 0 2.634674 0.534256 3.5856323 1.4852295c0.95098877 0.95095825 1.4852295 2.2407532 1.4852295 3.5856323l0 0c0 2.8005676 -2.2702942 5.070862 -5.070862 5.070862l0 0c-2.8005676 0 -5.070862 -2.2702942 -5.070862 -5.070862z"
            fill-rule="evenodd" />
        <path fill="#000000"
            d="m261.5118 87.53412l0 0c0 -1.6177139 1.3114319 -2.9291306 2.9291382 -2.9291306l0 0c0.77685547 0 1.5218811 0.30860138 2.0711975 0.8579254c0.5493164 0.5493164 0.8579407 1.2943497 0.8579407 2.0712051l0 0c0 1.6177216 -1.3114319 2.9291382 -2.9291382 2.9291382l0 0c-1.6177063 0 -2.9291382 -1.3114166 -2.9291382 -2.9291382z"
            fill-rule="evenodd" />
        <path fill="#000000"
            d="m261.5118 172.46063l0 0c0 -1.6177216 1.3114319 -2.9291382 2.9291382 -2.9291382l0 0c0.77685547 0 1.5218811 0.308609 2.0711975 0.8579254c0.5493164 0.5493164 0.8579407 1.2943573 0.8579407 2.0712128l0 0c0 1.6177063 -1.3114319 2.9291382 -2.9291382 2.9291382l0 0c-1.6177063 0 -2.9291382 -1.3114319 -2.9291382 -2.9291382z"
            fill-rule="evenodd" />
        <path fill="#999999"
            d="m253.37007 199.63786l0 0c0 -2.0381317 1.6522369 -3.6903534 3.690384 -3.6903534l14.760986 0l0 0c0.97875977 0 1.9174194 0.3888092 2.609497 1.0808716c0.69207764 0.69207764 1.0808716 1.6307373 1.0808716 2.6094818l0 18.635025c0 2.0381317 -1.6522217 3.6903687 -3.6903687 3.6903687l-14.760986 0c-2.038147 0 -3.690384 -1.6522369 -3.690384 -3.6903687z"
            fill-rule="evenodd" />
        <path stroke="#cccccc" stroke-width="1.0" stroke-linejoin="round" stroke-linecap="butt"
            d="m253.37007 199.63786l0 0c0 -2.0381317 1.6522369 -3.6903534 3.690384 -3.6903534l14.760986 0l0 0c0.97875977 0 1.9174194 0.3888092 2.609497 1.0808716c0.69207764 0.69207764 1.0808716 1.6307373 1.0808716 2.6094818l0 18.635025c0 2.0381317 -1.6522217 3.6903687 -3.6903687 3.6903687l-14.760986 0c-2.038147 0 -3.690384 -1.6522369 -3.690384 -3.6903687z"
            fill-rule="evenodd" />
        <path fill="#000000"
            d="m261.5118 245.44751l0 0c0 -1.6177216 1.3114319 -2.9291382 2.9291382 -2.9291382l0 0c0.77685547 0 1.5218811 0.308609 2.0711975 0.8579254c0.5493164 0.5493164 0.8579407 1.2943573 0.8579407 2.0712128l0 0c0 1.6177063 -1.3114319 2.9291382 -2.9291382 2.9291382l0 0c-1.6177063 0 -2.9291382 -1.3114319 -2.9291382 -2.9291382z"
            fill-rule="evenodd" />
        <path fill="#000000"
            d="m261.5118 271.8622l0 0c0 -1.6177368 1.3114319 -2.9291382 2.9291382 -2.9291382l0 0c0.77685547 0 1.5218811 0.30859375 2.0711975 0.85791016c0.5493164 0.5493164 0.8579407 1.2943726 0.8579407 2.071228l0 0c0 1.6177063 -1.3114319 2.9291382 -2.9291382 2.9291382l0 0c-1.6177063 0 -2.9291382 -1.3114319 -2.9291382 -2.9291382z"
            fill-rule="evenodd" />
        <path fill="#000000" fill-opacity="0.0"
            d="m324.87402 58.160107c-11.149628 0 -16.724426 -3.2519684 -22.299225 -6.5039406c-5.5747986 -3.2519684 -11.149597 -6.503937 -22.299194 -6.503937"
            fill-rule="evenodd" />
        <path stroke="#000000" stroke-width="1.0" stroke-linejoin="round" stroke-linecap="butt"
            d="m324.87402 58.160107c-11.149628 0 -16.724426 -3.2519684 -22.299225 -6.5039406c-5.5747986 -3.2519684 -11.149597 -6.503937 -22.299194 -6.503937"
            fill-rule="evenodd" />
        <path fill="#000000" fill-opacity="0.0"
            d="m325.58267 58.348915c-5.41687 0.48960114 -32.501312 2.0943298 -32.501312 2.937603c0 0.84326935 32.417755 1.2787552 32.501312 2.1220284c0.08355713 0.84326935 -32.0 2.0400696 -32.0 2.9375992c0 0.8975296 32.0 1.5771713 32.0 2.4475708c0 0.8703995 -32.0831 1.9044266 -32.0 2.774826c0.08312988 0.8703995 32.498688 1.5771713 32.498688 2.4475708c0 0.8703995 -32.415558 1.9044342 -32.498688 2.7748337c-0.083099365 0.8703995 32.0 1.6044388 32.0 2.4475708c0 0.8431244 -26.666656 2.1759949 -32.0 2.6111984"
            fill-rule="evenodd" />
        <path stroke="#000000" stroke-width="1.0" stroke-linejoin="round" stroke-linecap="butt"
            d="m325.58267 58.348915c-5.41687 0.48960114 -32.501312 2.0943298 -32.501312 2.937603c0 0.84326935 32.417755 1.2787552 32.501312 2.1220284c0.08355713 0.84326935 -32.0 2.0400696 -32.0 2.9375992c0 0.8975296 32.0 1.5771713 32.0 2.4475708c0 0.8703995 -32.0831 1.9044266 -32.0 2.774826c0.08312988 0.8703995 32.498688 1.5771713 32.498688 2.4475708c0 0.8703995 -32.415558 1.9044342 -32.498688 2.7748337c-0.083099365 0.8703995 32.0 1.6044388 32.0 2.4475708c0 0.8431244 -26.666656 2.1759949 -32.0 2.6111984"
            fill-rule="evenodd" />
        <path fill="#000000" fill-opacity="0.0" d="m293.6824 81.95538l-4.787384 0.40944672"
            fill-rule="evenodd" />
        <path stroke="#000000" stroke-width="1.0" stroke-linejoin="round" stroke-linecap="butt"
            d="m293.6824 81.95538l-4.787384 0.40944672" fill-rule="evenodd" />
        <path fill="#000000" fill-opacity="0.0" d="m288.28348 82.755905l0 -23.59055"
            fill-rule="evenodd" />
        <path stroke="#000000" stroke-width="1.0" stroke-linejoin="round" stroke-linecap="butt"
            d="m288.28348 82.755905l0 -23.59055" fill-rule="evenodd" />
        <path fill="#f1c232"
            d="m265.86478 202.77312l0.4131775 4.085449l-0.9897766 -0.033798218l1.142395 3.8922577l-1.0286255 0.044555664l0.83258057 5.9804688l-3.472046 -5.990204l1.2218628 0.0143585205l-2.1246643 -3.7876587l1.4873047 -0.10594177l-2.250702 -3.984253z"
            fill-rule="evenodd" />
        <path stroke="#666666" stroke-width="1.0" stroke-linejoin="round" stroke-linecap="butt"
            d="m265.86478 202.77312l0.4131775 4.085449l-0.9897766 -0.033798218l1.142395 3.8922577l-1.0286255 0.044555664l0.83258057 5.9804688l-3.472046 -5.990204l1.2218628 0.0143585205l-2.1246643 -3.7876587l1.4873047 -0.10594177l-2.250702 -3.984253z"
            fill-rule="evenodd" />
        <path fill="#666666" d="m548.6116 114.25722l105.51178 0l0 179.40157l-105.51178 0z"
            fill-rule="evenodd" />
        <path stroke="#434343" stroke-width="1.0" stroke-linejoin="round" stroke-linecap="butt"
            d="m548.6116 114.25722l105.51178 0l0 179.40157l-105.51178 0z" fill-rule="evenodd" />
        <path fill="#3d85c6" d="m548.6116 130.75853l13.984253 0l0 144.50395l-13.984253 0z"
            fill-rule="evenodd" />
        <path fill="#3d85c6" d="m640.1374 130.75853l13.984253 0l0 144.50395l-13.984253 0z"
            fill-rule="evenodd" />
        <path fill="#999999" d="m562.6028 130.75853l77.543274 0l0 56.0l-77.543274 0z"
            fill-rule="evenodd" />
        <path fill="#999999" d="m562.6028 240.75908l77.543274 0l0 34.488174l-77.543274 0z"
            fill-rule="evenodd" />
        <path fill="#d9d9d9" d="m586.8635 118.25722l29.007874 0l0 8.503937l-29.007874 0z"
            fill-rule="evenodd" />
        <path fill="#d9d9d9"
            d="m56.013412 9.721131l0 0c0 -5.3694024 4.3527603 -9.722163 9.72216 -9.722163l38.88749 0l0 0c2.578476 0 5.051346 1.0242964 6.8746033 2.8475556c1.8232651 1.8232594 2.847557 4.2961297 2.847557 6.8746076l0 64.47902c0 5.3694 -4.3527603 9.72216 -9.72216 9.72216l-38.88749 0c-5.3694 0 -9.72216 -4.3527603 -9.72216 -9.72216z"
            fill-rule="evenodd" />
        <path stroke="#cccccc" stroke-width="1.0" stroke-linejoin="round" stroke-linecap="butt"
            d="m56.013412 9.721131l0 0c0 -5.3694024 4.3527603 -9.722163 9.72216 -9.722163l38.88749 0l0 0c2.578476 0 5.051346 1.0242964 6.8746033 2.8475556c1.8232651 1.8232594 2.847557 4.2961297 2.847557 6.8746076l0 64.47902c0 5.3694 -4.3527603 9.72216 -9.72216 9.72216l-38.88749 0c-5.3694 0 -9.72216 -4.3527603 -9.72216 -9.72216z"
            fill-rule="evenodd" />
        <path fill="#ffffff" d="m56.013412 8.668068l58.33181 0l0 66.59755l-58.33181 0z"
            fill-rule="evenodd" />
        <path stroke="#f3f3f3" stroke-width="1.0" stroke-linejoin="round" stroke-linecap="butt"
            d="m56.013412 8.668068l58.33181 0l0 66.59755l-58.33181 0z" fill-rule="evenodd" />
        <path fill="#d9d9d9"
            d="m507.31577 241.42732l0 0c0 -2.2384033 1.8145752 -4.052994 4.053009 -4.052994l16.211487 0l0 0c1.0749512 0 2.105835 0.42700195 2.8659058 1.187088c0.7600708 0.76008606 1.1871338 1.7909851 1.1871338 2.8659058l0 20.640488c0 2.2384033 -1.8146362 4.053009 -4.0530396 4.053009l-16.211487 0c-2.2384338 0 -4.053009 -1.8146057 -4.053009 -4.053009z"
            fill-rule="evenodd" />
        <path stroke="#b7b7b7" stroke-width="1.0" stroke-linejoin="round" stroke-linecap="butt"
            d="m507.31577 241.42732l0 0c0 -2.2384033 1.8145752 -4.052994 4.053009 -4.052994l16.211487 0l0 0c1.0749512 0 2.105835 0.42700195 2.8659058 1.187088c0.7600708 0.76008606 1.1871338 1.7909851 1.1871338 2.8659058l0 20.640488c0 2.2384033 -1.8146362 4.053009 -4.0530396 4.053009l-16.211487 0c-2.2384338 0 -4.053009 -1.8146057 -4.053009 -4.053009z"
            fill-rule="evenodd" />
        <path fill="#cccccc" d="m531.6333 255.94672l8.85791 0l0 5.320343l-8.85791 0z"
            fill-rule="evenodd" />
        <path stroke="#b7b7b7" stroke-width="1.0" stroke-linejoin="round" stroke-linecap="butt"
            d="m531.6333 255.94672l8.85791 0l0 5.320343l-8.85791 0z" fill-rule="evenodd" />
        <path fill="#cccccc" d="m498.45782 255.94672l8.857941 0l0 5.320343l-8.857941 0z"
            fill-rule="evenodd" />
        <path stroke="#b7b7b7" stroke-width="1.0" stroke-linejoin="round" stroke-linecap="butt"
            d="m498.45782 255.94672l8.857941 0l0 5.320343l-8.857941 0z" fill-rule="evenodd" />
        <path fill="#cccccc" d="m522.1347 228.51639l0 8.857941l-5.3203735 0l0 -8.857941z"
            fill-rule="evenodd" />
        <path stroke="#b7b7b7" stroke-width="1.0" stroke-linejoin="round" stroke-linecap="butt"
            d="m522.1347 228.51639l0 8.857941l-5.3203735 0l0 -8.857941z" fill-rule="evenodd" />
        <path fill="#ffffff"
            d="m511.9606 257.26752l0 0c0 -1.7076111 1.3843079 -3.091919 3.0918884 -3.091919l0 0c0.82006836 0 1.6065063 0.3257599 2.1863403 0.90560913c0.579834 0.57984924 0.9055786 1.366272 0.9055786 2.1863098l0 0c0 1.7076111 -1.3842773 3.091919 -3.091919 3.091919l0 0c-1.7075806 0 -3.0918884 -1.3843079 -3.0918884 -3.091919z"
            fill-rule="evenodd" />
        <path stroke="#666666" stroke-width="1.0" stroke-linejoin="round" stroke-linecap="butt"
            d="m511.9606 257.26752l0 0c0 -1.7076111 1.3843079 -3.091919 3.0918884 -3.091919l0 0c0.82006836 0 1.6065063 0.3257599 2.1863403 0.90560913c0.579834 0.57984924 0.9055786 1.366272 0.9055786 2.1863098l0 0c0 1.7076111 -1.3842773 3.091919 -3.091919 3.091919l0 0c-1.7075806 0 -3.0918884 -1.3843079 -3.0918884 -3.091919z"
            fill-rule="evenodd" />
        <path fill="#ffffff"
            d="m520.8046 257.26752l0 0c0 -1.7076111 1.3842773 -3.091919 3.091919 -3.091919l0 0c0.8200073 0 1.6064453 0.3257599 2.1862793 0.90560913c0.579834 0.57984924 0.90563965 1.366272 0.90563965 2.1863098l0 0c0 1.7076111 -1.3843384 3.091919 -3.091919 3.091919l0 0c-1.7076416 0 -3.091919 -1.3843079 -3.091919 -3.091919z"
            fill-rule="evenodd" />
        <path stroke="#666666" stroke-width="1.0" stroke-linejoin="round" stroke-linecap="butt"
            d="m520.8046 257.26752l0 0c0 -1.7076111 1.3842773 -3.091919 3.091919 -3.091919l0 0c0.8200073 0 1.6064453 0.3257599 2.1862793 0.90560913c0.579834 0.57984924 0.90563965 1.366272 0.90563965 2.1863098l0 0c0 1.7076111 -1.3843384 3.091919 -3.091919 3.091919l0 0c-1.7076416 0 -3.091919 -1.3843079 -3.091919 -3.091919z"
            fill-rule="evenodd" />
        <path fill="#ffffff"
            d="m516.3826 245.3316l0 0c0 -1.7076263 1.3842773 -3.091919 3.091919 -3.091919l0 0c0.8200073 0 1.6064453 0.3257599 2.1862793 0.9055939c0.579834 0.57984924 0.90563965 1.3662872 0.90563965 2.186325l0 0c0 1.7076111 -1.3843384 3.091919 -3.091919 3.091919l0 0c-1.7076416 0 -3.091919 -1.3843079 -3.091919 -3.091919z"
            fill-rule="evenodd" />
        <path stroke="#666666" stroke-width="1.0" stroke-linejoin="round" stroke-linecap="butt"
            d="m516.3826 245.3316l0 0c0 -1.7076263 1.3842773 -3.091919 3.091919 -3.091919l0 0c0.8200073 0 1.6064453 0.3257599 2.1862793 0.9055939c0.579834 0.57984924 0.90563965 1.3662872 0.90563965 2.186325l0 0c0 1.7076111 -1.3843384 3.091919 -3.091919 3.091919l0 0c-1.7076416 0 -3.091919 -1.3843079 -3.091919 -3.091919z"
            fill-rule="evenodd" />
        <path fill="var(--tank-1-retur, #b45f06)"
            d="m168.02625 255.07611l94.897644 0l0 6.4881897l-94.897644 0z"
            fill-rule="evenodd" />
        <path fill="var(--panna-till-laddomat, #b45f06)"
            d="m540.4908 255.0748l22.141785 0l0 6.4881897l-22.141785 0z"
            fill-rule="evenodd" />
        <path fill="var(--panna-framledning, #b45f06)"
            d="m516.23096 148.91077l46.393738 0l0 6.4881897l-46.393738 0z"
            fill-rule="evenodd" />
        <path fill="var(--laddomat-top, #b45f06)"
            d="m522.7192 150.11203l0 77.79527l-6.48822 0l0 -77.79527z"
            fill-rule="evenodd" />
        <path fill="var(--lvvp-ut, #b45f06)"
            d="m148.7664 16.493439l115.14961 0l0 6.488188l-115.14961 0z"
            fill-rule="evenodd" />
        <path fill="var(--tank-1-top-in, #b45f06)"
            d="m267.68503 16.493439l0 23.622047l-6.4881897 0l0 -23.622047z"
            fill-rule="evenodd" />
        <path fill="var(--tank-2-top-in, #b45f06)"
            d="m420.02362 16.493439l0 23.622047l-6.4881897 0l0 -23.622047z"
            fill-rule="evenodd" />
        <path fill="var(--framledning-shuntventil, #b45f06)"
            d="m99.77428 213.62073l73.44882 0l0 6.4881897l-73.44882 0z"
            fill-rule="evenodd" />
        <path fill="var(--kallvatten-shuntventil, #b45f06)"
            d="m174.51443 227.99475l0 33.007874l-6.4881897 0l0 -33.007874z"
            fill-rule="evenodd" />
        <path fill="var(--varmvatten-shuntventil, #b45f06)"
            d="m174.51443 71.496086l0 133.00787l-6.4881897 0l0 -133.00787z"
            fill-rule="evenodd" />
        <path fill="var(--varmvatten-shuntventil, #b45f06)"
            d="m262.9029 76.926506l-94.897644 0l0 -6.488182l94.897644 0z"
            fill-rule="evenodd" />
        <path fill="#f3f3f3" d="m9.884514E-4 255.34348l99.7728 0l0 6.218933l-99.7728 0z"
            fill-rule="evenodd" />
        <path stroke="#b7b7b7" stroke-width="1.0" stroke-linejoin="round" stroke-linecap="butt"
            d="m9.884514E-4 255.34348l99.7728 0l0 6.218933l-99.7728 0z" fill-rule="evenodd" />
        <path fill="#f3f3f3" d="m9.884514E-4 213.90408l99.7728 0l0 6.218918l-99.7728 0z"
            fill-rule="evenodd" />
        <path stroke="#b7b7b7" stroke-width="1.0" stroke-linejoin="round" stroke-linecap="butt"
            d="m9.884514E-4 213.90408l99.7728 0l0 6.218918l-99.7728 0z" fill-rule="evenodd" />
        <path fill="#f3f3f3"
            d="m3.1188884 210.67192l0 0c0 -0.8617554 0.6985903 -1.5603485 1.5603452 -1.5603485l6.241193 0l0 0c0.4138298 0 0.81070995 0.1643982 1.1033306 0.457016c0.2926216 0.29263306 0.45701504 0.6894989 0.45701504 1.1033325l0 54.389297c0 0.8617554 -0.6985903 1.5603638 -1.5603456 1.5603638l-6.241193 0c-0.8617549 0 -1.5603452 -0.6986084 -1.5603452 -1.5603638z"
            fill-rule="evenodd" />
        <path stroke="#b7b7b7" stroke-width="1.0" stroke-linejoin="round" stroke-linecap="butt"
            d="m3.1188884 210.67192l0 0c0 -0.8617554 0.6985903 -1.5603485 1.5603452 -1.5603485l6.241193 0l0 0c0.4138298 0 0.81070995 0.1643982 1.1033306 0.457016c0.2926216 0.29263306 0.45701504 0.6894989 0.45701504 1.1033325l0 54.389297c0 0.8617554 -0.6985903 1.5603638 -1.5603456 1.5603638l-6.241193 0c-0.8617549 0 -1.5603452 -0.6986084 -1.5603452 -1.5603638z"
            fill-rule="evenodd" />
        <path fill="#f3f3f3"
            d="m15.069474 210.67192l0 0c0 -0.8617554 0.6985903 -1.5603485 1.5603456 -1.5603485l6.241194 0l0 0c0.4138279 0 0.810709 0.1643982 1.1033306 0.457016c0.2926216 0.29263306 0.45701408 0.6894989 0.45701408 1.1033325l0 54.389297c0 0.8617554 -0.69859123 1.5603638 -1.5603447 1.5603638l-6.241194 0c-0.8617554 0 -1.5603456 -0.6986084 -1.5603456 -1.5603638z"
            fill-rule="evenodd" />
        <path stroke="#b7b7b7" stroke-width="1.0" stroke-linejoin="round" stroke-linecap="butt"
            d="m15.069474 210.67192l0 0c0 -0.8617554 0.6985903 -1.5603485 1.5603456 -1.5603485l6.241194 0l0 0c0.4138279 0 0.810709 0.1643982 1.1033306 0.457016c0.2926216 0.29263306 0.45701408 0.6894989 0.45701408 1.1033325l0 54.389297c0 0.8617554 -0.69859123 1.5603638 -1.5603447 1.5603638l-6.241194 0c-0.8617554 0 -1.5603456 -0.6986084 -1.5603456 -1.5603638z"
            fill-rule="evenodd" />
        <path fill="#f3f3f3"
            d="m27.020061 210.67192l0 0c0 -0.8617554 0.6985893 -1.5603485 1.5603447 -1.5603485l6.241192 0l0 0c0.4138298 0 0.8107109 0.1643982 1.1033325 0.457016c0.2926216 0.29263306 0.45701218 0.6894989 0.45701218 1.1033325l0 54.389297c0 0.8617554 -0.6985893 1.5603638 -1.5603447 1.5603638l-6.241192 0c-0.8617554 0 -1.5603447 -0.6986084 -1.5603447 -1.5603638z"
            fill-rule="evenodd" />
        <path stroke="#b7b7b7" stroke-width="1.0" stroke-linejoin="round" stroke-linecap="butt"
            d="m27.020061 210.67192l0 0c0 -0.8617554 0.6985893 -1.5603485 1.5603447 -1.5603485l6.241192 0l0 0c0.4138298 0 0.8107109 0.1643982 1.1033325 0.457016c0.2926216 0.29263306 0.45701218 0.6894989 0.45701218 1.1033325l0 54.389297c0 0.8617554 -0.6985893 1.5603638 -1.5603447 1.5603638l-6.241192 0c-0.8617554 0 -1.5603447 -0.6986084 -1.5603447 -1.5603638z"
            fill-rule="evenodd" />
        <path fill="#f3f3f3"
            d="m38.970646 210.67192l0 0c0 -0.8617554 0.6985893 -1.5603485 1.5603447 -1.5603485l6.2411957 0l0 0c0.4138298 0 0.8107071 0.1643982 1.1033287 0.457016c0.2926216 0.29263306 0.457016 0.6894989 0.457016 1.1033325l0 54.389297c0 0.8617554 -0.6985893 1.5603638 -1.5603447 1.5603638l-6.2411957 0c-0.8617554 0 -1.5603447 -0.6986084 -1.5603447 -1.5603638z"
            fill-rule="evenodd" />
        <path stroke="#b7b7b7" stroke-width="1.0" stroke-linejoin="round" stroke-linecap="butt"
            d="m38.970646 210.67192l0 0c0 -0.8617554 0.6985893 -1.5603485 1.5603447 -1.5603485l6.2411957 0l0 0c0.4138298 0 0.8107071 0.1643982 1.1033287 0.457016c0.2926216 0.29263306 0.457016 0.6894989 0.457016 1.1033325l0 54.389297c0 0.8617554 -0.6985893 1.5603638 -1.5603447 1.5603638l-6.2411957 0c-0.8617554 0 -1.5603447 -0.6986084 -1.5603447 -1.5603638z"
            fill-rule="evenodd" />
        <path fill="#f3f3f3"
            d="m50.921234 210.67192l0 0c0 -0.8617554 0.6985893 -1.5603485 1.5603447 -1.5603485l6.241192 0l0 0c0.4138298 0 0.8107109 0.1643982 1.1033325 0.457016c0.2926216 0.29263306 0.45701218 0.6894989 0.45701218 1.1033325l0 54.389297c0 0.8617554 -0.6985893 1.5603638 -1.5603447 1.5603638l-6.241192 0c-0.8617554 0 -1.5603447 -0.6986084 -1.5603447 -1.5603638z"
            fill-rule="evenodd" />
        <path stroke="#b7b7b7" stroke-width="1.0" stroke-linejoin="round" stroke-linecap="butt"
            d="m50.921234 210.67192l0 0c0 -0.8617554 0.6985893 -1.5603485 1.5603447 -1.5603485l6.241192 0l0 0c0.4138298 0 0.8107109 0.1643982 1.1033325 0.457016c0.2926216 0.29263306 0.45701218 0.6894989 0.45701218 1.1033325l0 54.389297c0 0.8617554 -0.6985893 1.5603638 -1.5603447 1.5603638l-6.241192 0c-0.8617554 0 -1.5603447 -0.6986084 -1.5603447 -1.5603638z"
            fill-rule="evenodd" />
        <path fill="#f3f3f3"
            d="m62.87182 210.67192l0 0c0 -0.8617554 0.6985893 -1.5603485 1.5603485 -1.5603485l6.241188 0l0 0c0.41383362 0 0.8107147 0.1643982 1.1033325 0.457016c0.29262543 0.29263306 0.457016 0.6894989 0.457016 1.1033325l0 54.389297c0 0.8617554 -0.69859314 1.5603638 -1.5603485 1.5603638l-6.241188 0c-0.8617592 0 -1.5603485 -0.6986084 -1.5603485 -1.5603638z"
            fill-rule="evenodd" />
        <path stroke="#b7b7b7" stroke-width="1.0" stroke-linejoin="round" stroke-linecap="butt"
            d="m62.87182 210.67192l0 0c0 -0.8617554 0.6985893 -1.5603485 1.5603485 -1.5603485l6.241188 0l0 0c0.41383362 0 0.8107147 0.1643982 1.1033325 0.457016c0.29262543 0.29263306 0.457016 0.6894989 0.457016 1.1033325l0 54.389297c0 0.8617554 -0.69859314 1.5603638 -1.5603485 1.5603638l-6.241188 0c-0.8617592 0 -1.5603485 -0.6986084 -1.5603485 -1.5603638z"
            fill-rule="evenodd" />
        <path fill="#f3f3f3"
            d="m74.8224 210.67192l0 0c0 -0.8617554 0.69859314 -1.5603485 1.5603485 -1.5603485l6.2411957 0l0 0c0.413826 0 0.8107071 0.1643982 1.1033249 0.457016c0.29262543 0.29263306 0.457016 0.6894989 0.457016 1.1033325l0 54.389297c0 0.8617554 -0.69859314 1.5603638 -1.5603409 1.5603638l-6.2411957 0c-0.8617554 0 -1.5603485 -0.6986084 -1.5603485 -1.5603638z"
            fill-rule="evenodd" />
        <path stroke="#b7b7b7" stroke-width="1.0" stroke-linejoin="round" stroke-linecap="butt"
            d="m74.8224 210.67192l0 0c0 -0.8617554 0.69859314 -1.5603485 1.5603485 -1.5603485l6.2411957 0l0 0c0.413826 0 0.8107071 0.1643982 1.1033249 0.457016c0.29262543 0.29263306 0.457016 0.6894989 0.457016 1.1033325l0 54.389297c0 0.8617554 -0.69859314 1.5603638 -1.5603409 1.5603638l-6.2411957 0c-0.8617554 0 -1.5603485 -0.6986084 -1.5603485 -1.5603638z"
            fill-rule="evenodd" />
        <path fill="#f3f3f3"
            d="m86.77299 210.67192l0 0c0 -0.8617554 0.69859314 -1.5603485 1.5603485 -1.5603485l6.2411957 0l0 0c0.413826 0 0.8107071 0.1643982 1.1033249 0.457016c0.29262543 0.29263306 0.457016 0.6894989 0.457016 1.1033325l0 54.389297c0 0.8617554 -0.6985855 1.5603638 -1.5603409 1.5603638l-6.2411957 0c-0.8617554 0 -1.5603485 -0.6986084 -1.5603485 -1.5603638z"
            fill-rule="evenodd" />
        <path stroke="#b7b7b7" stroke-width="1.0" stroke-linejoin="round" stroke-linecap="butt"
            d="m86.77299 210.67192l0 0c0 -0.8617554 0.69859314 -1.5603485 1.5603485 -1.5603485l6.2411957 0l0 0c0.413826 0 0.8107071 0.1643982 1.1033249 0.457016c0.29262543 0.29263306 0.457016 0.6894989 0.457016 1.1033325l0 54.389297c0 0.8617554 -0.6985855 1.5603638 -1.5603409 1.5603638l-6.2411957 0c-0.8617554 0 -1.5603485 -0.6986084 -1.5603485 -1.5603638z"
            fill-rule="evenodd" />
        <path fill="var(--retur, #b45f06)"
            d="m99.77428 255.10498l73.44882 0l0 6.4881897l-73.44882 0z"
            fill-rule="evenodd" />
        <path fill="#666666"
            d="m159.00262 208.68774l0 0c0 -2.2584686 1.8308563 -4.089325 4.089325 -4.089325l16.356781 0l0 0c1.0845642 0 2.1246948 0.43084717 2.8915863 1.1977386c0.76690674 0.7668915 1.1977386 1.8070374 1.1977386 2.8915863l0 16.356796c0 2.2584686 -1.8308563 4.089325 -4.089325 4.089325l-16.356781 0c-2.2584686 0 -4.089325 -1.8308563 -4.089325 -4.089325z"
            fill-rule="evenodd" />
        <path stroke="#000000" stroke-width="1.0" stroke-linejoin="round" stroke-linecap="butt"
            d="m159.00262 208.68774l0 0c0 -2.2584686 1.8308563 -4.089325 4.089325 -4.089325l16.356781 0l0 0c1.0845642 0 2.1246948 0.43084717 2.8915863 1.1977386c0.76690674 0.7668915 1.1977386 1.8070374 1.1977386 2.8915863l0 16.356796c0 2.2584686 -1.8308563 4.089325 -4.089325 4.089325l-16.356781 0c-2.2584686 0 -4.089325 -1.8308563 -4.089325 -4.089325z"
            fill-rule="evenodd" />
        <path fill="#e06666"
            d="m166.67192 216.86613l0 0c0 -2.539627 2.0587769 -4.598419 4.598419 -4.598419l0 0c1.219574 0 2.389206 0.4844818 3.2515717 1.3468475c0.862381 0.8623657 1.3468475 2.0319977 1.3468475 3.2515717l0 0c0 2.5396423 -2.0587769 4.5984344 -4.598419 4.5984344l0 0c-2.5396423 0 -4.598419 -2.058792 -4.598419 -4.5984344z"
            fill-rule="evenodd" />
        <path stroke="#000000" stroke-width="1.0" stroke-linejoin="round" stroke-linecap="butt"
            d="m166.67192 216.86613l0 0c0 -2.539627 2.0587769 -4.598419 4.598419 -4.598419l0 0c1.219574 0 2.389206 0.4844818 3.2515717 1.3468475c0.862381 0.8623657 1.3468475 2.0319977 1.3468475 3.2515717l0 0c0 2.5396423 -2.0587769 4.5984344 -4.598419 4.5984344l0 0c-2.5396423 0 -4.598419 -2.058792 -4.598419 -4.5984344z"
            fill-rule="evenodd" />
        <path fill="var(--lvvp-in, #b45f06)"
            d="m99.77165 182.45407l65.732285 0l0 6.4881897l-65.732285 0z"
            fill-rule="evenodd" />
        <path fill="var(--lvvp-in, #b45f06)"
            d="m177.03674 182.45407l86.86615 0l0 6.4881897l-86.86615 0z"
            fill-rule="evenodd" />
        <path fill="#cccccc"
            d="m111.61942 216.86482l0 0c0 -6.7752686 5.492447 -12.267715 12.267715 -12.267715l0 0c3.253601 0 6.3739395 1.2924957 8.674583 3.5931396c2.300644 2.300644 3.5931396 5.4209747 3.5931396 8.674576l0 0c0 6.775284 -5.492447 12.267731 -12.267723 12.267731l0 0c-6.7752686 0 -12.267715 -5.492447 -12.267715 -12.267731z"
            fill-rule="evenodd" />
        <path stroke="#999999" stroke-width="1.0" stroke-linejoin="round" stroke-linecap="butt"
            d="m111.61942 216.86482l0 0c0 -6.7752686 5.492447 -12.267715 12.267715 -12.267715l0 0c3.253601 0 6.3739395 1.2924957 8.674583 3.5931396c2.300644 2.300644 3.5931396 5.4209747 3.5931396 8.674576l0 0c0 6.775284 -5.492447 12.267731 -12.267723 12.267731l0 0c-6.7752686 0 -12.267715 -5.492447 -12.267715 -12.267731z"
            fill-rule="evenodd" />
        <path fill="#f3f3f3" d="m129.70473 225.71523l-15.307091 -8.850403l15.307091 -8.850388z"
            fill-rule="evenodd" />
        <path stroke="#999999" stroke-width="1.0" stroke-linejoin="round" stroke-linecap="butt"
            d="m129.70473 225.71523l-15.307091 -8.850403l15.307091 -8.850388z" fill-rule="evenodd" />
        <path fill="#000000" fill-opacity="0.0" d="m288.9029 58.99475l-39.496063 0"
            fill-rule="evenodd" />
        <path stroke="#000000" stroke-width="1.0" stroke-linejoin="round" stroke-linecap="butt"
            d="m288.9029 58.99475l-39.496063 0" fill-rule="evenodd" />
        <path fill="#000000" fill-opacity="0.0" d="m249.88977 59.00525l-1.448822 -13.763779"
            fill-rule="evenodd" />
        <path stroke="#000000" stroke-width="1.0" stroke-linejoin="round" stroke-linecap="butt"
            d="m249.88977 59.00525l-1.448822 -13.763779" fill-rule="evenodd" />
        <path fill="var(--lvvp-ut, #b45f06)" d="m154.49081 16.493439l0 140.0l-6.4881897 0l0 -140.0z"
            fill-rule="evenodd" />
        <path fill="var(--lvvp-ut, #b45f06)"
            d="m99.77431 149.85472l54.708664 0.06300354l0 6.4881897l-54.708664 -0.06300354z"
            fill-rule="evenodd" />
        <path fill="#0b5394"
            d="m0 149.08679l0 0c0 -5.293915 4.2915716 -9.58548 9.585493 -9.58548l80.608536 0c2.5422363 0 4.980339 1.0098877 6.7779694 2.8075256c1.7976303 1.7976227 2.8075256 4.235733 2.8075256 6.777954l0 38.340836c0 5.293915 -4.2915726 9.585495 -9.585495 9.585495l-80.608536 0c-5.2939215 0 -9.585493 -4.29158 -9.585493 -9.585495z"
            fill-rule="evenodd" />
        <path stroke="#073763" stroke-width="1.0" stroke-linejoin="round" stroke-linecap="butt"
            d="m0 149.08679l0 0c0 -5.293915 4.2915716 -9.58548 9.585493 -9.58548l80.608536 0c2.5422363 0 4.980339 1.0098877 6.7779694 2.8075256c1.7976303 1.7976227 2.8075256 4.235733 2.8075256 6.777954l0 38.340836c0 5.293915 -4.2915726 9.585495 -9.585495 9.585495l-80.608536 0c-5.2939215 0 -9.585493 -4.29158 -9.585493 -9.585495z"
            fill-rule="evenodd" />
        <path fill="#073763"
            d="m7.965956 168.25725l0 0c0 -11.611038 9.412598 -21.02362 21.023623 -21.02362l0 0c5.5758133 0 10.923252 2.214981 14.865948 6.157669c3.9426918 3.942688 6.157673 9.290131 6.157673 14.865952l0 0c0 11.611023 -9.412594 21.02362 -21.02362 21.02362l0 0c-11.611025 0 -21.023623 -9.412598 -21.023623 -21.02362z"
            fill-rule="evenodd" />
        <path stroke="#000000" stroke-width="1.0" stroke-linejoin="round" stroke-linecap="butt"
            d="m7.965956 168.25725l0 0c0 -11.611038 9.412598 -21.02362 21.023623 -21.02362l0 0c5.5758133 0 10.923252 2.214981 14.865948 6.157669c3.9426918 3.942688 6.157673 9.290131 6.157673 14.865952l0 0c0 11.611023 -9.412594 21.02362 -21.02362 21.02362l0 0c-11.611025 0 -21.023623 -9.412598 -21.023623 -21.02362z"
            fill-rule="evenodd" />
        <path fill="#cccccc"
            d="m111.61942 185.69685l0 0c0 -6.7752686 5.492447 -12.267715 12.267715 -12.267715l0 0c3.253601 0 6.3739395 1.2924805 8.674583 3.5931244c2.300644 2.300644 3.5931396 5.42099 3.5931396 8.674591l0 0c0 6.7752686 -5.492447 12.267715 -12.267723 12.267715l0 0c-6.7752686 0 -12.267715 -5.492447 -12.267715 -12.267715z"
            fill-rule="evenodd" />
        <path stroke="#999999" stroke-width="1.0" stroke-linejoin="round" stroke-linecap="butt"
            d="m111.61942 185.69685l0 0c0 -6.7752686 5.492447 -12.267715 12.267715 -12.267715l0 0c3.253601 0 6.3739395 1.2924805 8.674583 3.5931244c2.300644 2.300644 3.5931396 5.42099 3.5931396 8.674591l0 0c0 6.7752686 -5.492447 12.267715 -12.267723 12.267715l0 0c-6.7752686 0 -12.267715 -5.492447 -12.267715 -12.267715z"
            fill-rule="evenodd" />
        <path fill="#f3f3f3" d="m129.70473 194.54724l-15.307091 -8.850388l15.307091 -8.850403z"
            fill-rule="evenodd" />
        <path stroke="#999999" stroke-width="1.0" stroke-linejoin="round" stroke-linecap="butt"
            d="m129.70473 194.54724l-15.307091 -8.850388l15.307091 -8.850403z" fill-rule="evenodd" />
        <path fill="#f1c232" d="m246.22835 4.6614175l4.6614227 0l0 36.062992l-4.6614227 0z"
            fill-rule="evenodd" />
        <path stroke="#f1c232" stroke-width="1.0" stroke-linejoin="round" stroke-linecap="butt"
            d="m246.22835 4.6614175l4.6614227 0l0 36.062992l-4.6614227 0z" fill-rule="evenodd" />
        <path fill="#f1c232" d="m131.49344 4.6614175l0 -4.6614175l119.40158 0l0 4.6614175z"
            fill-rule="evenodd" />
        <path stroke="#f1c232" stroke-width="1.0" stroke-linejoin="round" stroke-linecap="butt"
            d="m131.49344 4.6614175l0 -4.6614175l119.40158 0l0 4.6614175z" fill-rule="evenodd" />
        <path fill="#f1c232" d="m131.49344 4.6614175l4.6614227 0l0 102.89764l-4.6614227 0z"
            fill-rule="evenodd" />
        <path stroke="#f1c232" stroke-width="1.0" stroke-linejoin="round" stroke-linecap="butt"
            d="m131.49344 4.6614175l4.6614227 0l0 102.89764l-4.6614227 0z" fill-rule="evenodd" />
        <path fill="#f1c232" d="m97.66929 107.6273l0 -4.661415l38.488197 0l0 4.661415z"
            fill-rule="evenodd" />
        <path stroke="#f1c232" stroke-width="1.0" stroke-linejoin="round" stroke-linecap="butt"
            d="m97.66929 107.6273l0 -4.661415l38.488197 0l0 4.661415z" fill-rule="evenodd" />
        <path fill="#f1c232" d="m92.08399 83.92126l4.661415 0l0 23.590553l-4.661415 0z"
            fill-rule="evenodd" />
        <path stroke="#f1c232" stroke-width="1.0" stroke-linejoin="round" stroke-linecap="butt"
            d="m92.08399 83.92126l4.661415 0l0 23.590553l-4.661415 0z" fill-rule="evenodd" />
        <path fill="#f1c232" d="m73.08399 83.92126l4.661415 0l0 23.590553l-4.661415 0z"
            fill-rule="evenodd" />
        <path stroke="#f1c232" stroke-width="1.0" stroke-linejoin="round" stroke-linecap="butt"
            d="m73.08399 83.92126l4.661415 0l0 23.590553l-4.661415 0z" fill-rule="evenodd" />
        <path fill="#f1c232" d="m39.257217 107.6273l0 -4.661415l38.48819 0l0 4.661415z"
            fill-rule="evenodd" />
        <path stroke="#f1c232" stroke-width="1.0" stroke-linejoin="round" stroke-linecap="butt"
            d="m39.257217 107.6273l0 -4.661415l38.48819 0l0 4.661415z" fill-rule="evenodd" />
        <path fill="#f1c232" d="m277.99213 4.6614175l0 -4.6614175l262.74017 0l0 4.6614175z"
            fill-rule="evenodd" />
        <path stroke="#f1c232" stroke-width="1.0" stroke-linejoin="round" stroke-linecap="butt"
            d="m277.99213 4.6614175l0 -4.6614175l262.74017 0l0 4.6614175z" fill-rule="evenodd" />
        <path fill="#f1c232" d="m537.38055 0l4.661438 0l0 66.99213l-4.661438 0z" fill-rule="evenodd" />
        <path stroke="#f1c232" stroke-width="1.0" stroke-linejoin="round" stroke-linecap="butt"
            d="m537.38055 0l4.661438 0l0 66.99213l-4.661438 0z" fill-rule="evenodd" />
        <path fill="#f1c232" d="m537.79266 66.9895l0 -4.661419l61.66925 0l0 4.661419z"
            fill-rule="evenodd" />
        <path stroke="#f1c232" stroke-width="1.0" stroke-linejoin="round" stroke-linecap="butt"
            d="m537.79266 66.9895l0 -4.661419l61.66925 0l0 4.661419z" fill-rule="evenodd" />
        <path fill="#4a86e8"
            d="m586.47235 64.65879l12.267761 -12.267715l0 6.1338577l12.2677 0l0 12.267715l-12.2677 0l0 6.1338577z"
            fill-rule="evenodd" />
        <path stroke="#4a86e8" stroke-width="1.0" stroke-linejoin="round" stroke-linecap="butt"
            d="m586.47235 64.65879l12.267761 -12.267715l0 6.1338577l12.2677 0l0 12.267715l-12.2677 0l0 6.1338577z"
            fill-rule="evenodd" />
        <path fill="#cc4125"
            d="m28.624672 105.296585l12.267715 -12.267715l0 6.1338577l12.267719 0l0 12.267715l-12.267719 0l0 6.1338654z"
            fill-rule="evenodd" />
        <path stroke="#cc4125" stroke-width="1.0" stroke-linejoin="round" stroke-linecap="butt"
            d="m28.624672 105.296585l12.267715 -12.267715l0 6.1338577l12.267719 0l0 12.267715l-12.267719 0l0 6.1338654z"
            fill-rule="evenodd" />
        <path fill="var(--laddomat-tank-2, #b45f06)"
            d="m417.43045 255.10498l81.03937 0l0 6.4881897l-81.03937 0z" fill-rule="evenodd" />
        <path fill="var(--tank-1-nere-tank-2, #b45f06)"
            d="m262.0551 255.07611l155.37009 0l0 6.4881897l-155.37009 0z" fill-rule="evenodd" />
        <path fill="var(--panna-ut, #b45f06)"
            d="m522.7192 17.130857l0 138.3622l-6.48822 0l0 -138.3622z"
            fill-rule="evenodd" />
        <path fill="var(--panna-ut, #b45f06)"
            d="m416.44357 16.493439l105.51181 0l0 6.488188l-105.51181 0z" fill-rule="evenodd" />
        <path fill="var(--tank-top, #b45f06)"
            d="m263.9029 16.493439l153.51181 0l0 6.488188l-153.51181 0z" fill-rule="evenodd" />
        <path fill="#f1c232" d="m277.99213 0l4.6614075 0l0 40.72441l-4.6614075 0z"
            fill-rule="evenodd" />
        <path stroke="#f1c232" stroke-width="1.0" stroke-linejoin="round" stroke-linecap="butt"
            d="m277.99213 0l4.6614075 0l0 40.72441l-4.6614075 0z" fill-rule="evenodd" />
    </g>
</svg>